<?xml version="1.0" encoding="utf-8"?>
<!-- Uploaded to: SVG Repo, www.svgrepo.com, Generator: SVG Repo Mixer Tools -->
<svg width="800px" height="800px" viewBox="0 0 1024 1024" class="icon"  version="1.1" xmlns="http://www.w3.org/2000/svg"><path d="M601.4 822.2h-3.7c-99.3 0-342.6-19.7-457.1-201.6-48.7-77.4-28.5-178.2 45.1-224.8 25.5-16.1 54.7-24.7 84.5-24.7 37.3 0 73.6 13.2 102.1 37.1 8 6.7 19.3 7.7 28.4 2.5 9-5.2 13.9-15.5 12.1-25.8-12-68.3 21.1-135.7 82.5-167.9 22-11.5 45.7-17.4 70.4-17.4 60.2 0 117.8 35.6 146.9 90.7 18.9 35.9 30.6 72.8 36.7 109.7 15.4 3.4 30.3 8.8 44 16.8 3.1 1.8 5.9 4 8.9 6-4.8-51.8-18.7-104.5-45.6-155.6-37.7-71.1-112.6-117.1-191-117.1-32.8 0-64.3 7.7-93.5 23C407 207.2 366 271.6 361 342.4c-28.2-13.6-59.3-20.9-91-20.9-39.2 0-77.7 11.2-111.1 32.3-96.5 61.3-123.7 192.8-60.5 293.3C226.2 850 490.1 871.9 597.6 871.9h4c30.9-0.1 60.1-13.1 81.3-34.8-18.2-3.8-35-12-49.1-23.9-9.7 5.7-20.9 8.9-32.4 9z m305.3-282.4c-20.1-11.6-43.9-16.1-67.1-12.8l-19.3 2.8-7.3-18.1c-8.8-22-24.2-39.9-44.7-51.7-15.9-9.2-33.8-14-52-14-36.6 0-69.9 18.6-89.1 49.8l-0.9 1.4-3.1 5.5c-51.7 98.7-3.6 203.8 29.7 257.8 11.1 18 30.3 29 51.3 29.6 3.8 0.1 7.8 0.2 12 0.2 60 0 169.1-13.3 225.4-102.1l4.5-8c27.2-50.4 9.8-112-39.4-140.4z" fill="#EF6D64" /></svg>