<?xml version="1.0" encoding="utf-8"?>

<!DOCTYPE svg PUBLIC "-//W3C//DTD SVG 1.1//EN" "http://www.w3.org/Graphics/SVG/1.1/DTD/svg11.dtd">
<!-- Uploaded to: SVG Repo, www.svgrepo.com, Generator: SVG Repo Mixer Tools -->
<svg height="800px" width="800px" version="1.1" id="_x32_" xmlns="http://www.w3.org/2000/svg" xmlns:xlink="http://www.w3.org/1999/xlink" 
	 viewBox="0 0 512 512"  xml:space="preserve">
<style type="text/css">
	.st0{fill:#000000;}
</style>
<g>
	<path class="st0" d="M119.472,66.59C53.489,66.59,0,120.094,0,186.1c0,65.983,53.489,119.487,119.472,119.487
		c0,0-0.578,44.392-36.642,108.284c-4.006,12.802,3.135,26.435,15.945,30.418c9.089,2.859,18.653,0.08,24.829-6.389
		c82.925-90.7,115.385-197.448,115.385-251.8C238.989,120.094,185.501,66.59,119.472,66.59z"/>
	<path class="st0" d="M392.482,66.59c-65.983,0-119.472,53.505-119.472,119.51c0,65.983,53.489,119.487,119.472,119.487
		c0,0-0.578,44.392-36.642,108.284c-4.006,12.802,3.136,26.435,15.945,30.418c9.089,2.859,18.653,0.08,24.828-6.389
		C479.539,347.2,512,240.452,512,186.1C512,120.094,458.511,66.59,392.482,66.59z"/>
</g>
</svg>